<svg xmlns="http://www.w3.org/2000/svg"  viewBox="0 0 333333 333333" shape-rendering="geometricPrecision" text-rendering="geometricPrecision" image-rendering="optimizeQuality" fill-rule="evenodd" clip-rule="evenodd"><path d="M166667 0c92048 0 166667 74619 166667 166667s-74619 166667-166667 166667S0 258715 0 166667 74619 0 166667 0zm-18220 138885h28897v14814l418 1c4024-7220 13865-14814 28538-14814 30514-1 36157 18989 36157 43691v50320l-30136 1v-44607c0-10634-221-24322-15670-24322-15691 0-18096 11575-18096 23548v45382h-30109v-94013zm-20892-26114c0 8650-7020 15670-15670 15670s-15672-7020-15672-15670 7022-15670 15672-15670 15670 7020 15670 15670zm-31342 26114h31342v94013H96213v-94013z" fill="#0077b5"/></svg>