<svg xmlns="http://www.w3.org/2000/svg"  viewBox="0 0 333333 333333" shape-rendering="geometricPrecision" text-rendering="geometricPrecision" image-rendering="optimizeQuality" fill-rule="evenodd" clip-rule="evenodd"><path d="M166667 0c92048 0 166667 74619 166667 166667s-74619 166667-166667 166667S0 258715 0 166667 74619 0 166667 0zm84195 132297s-1678-11849-6843-17052c-6545-6843-13873-6887-17223-7283-24036-1751-60138-1751-60138-1751h-63s-36085 0-60135 1751c-3363 409-10681 437-17223 7283-5168 5203-6811 17052-6811 17052s-1711 13904-1711 27838v13029c0 13905 1709 27837 1709 27837s1678 11849 6811 17061c6542 6843 15139 6621 18977 7350 13761 1314 58457 1710 58457 1710s36133-64 60169-1783c3363-397 10678-438 17223-7284 5168-5202 6843-17065 6843-17065s1711-13904 1711-27837v-13028c-35-13905-1745-27837-1745-27837l-9 9-1-1zm-102010 56674v-48312l46437 24237-46437 24075z" fill="red"/></svg>